<mxfile host="65bd71144e">
    <diagram id="scxYTPqFK_8ZRnn1Dr2I" name="Page-1">
        <mxGraphModel dx="548" dy="489" grid="1" gridSize="10" guides="1" tooltips="1" connect="1" arrows="1" fold="1" page="1" pageScale="1" pageWidth="850" pageHeight="1100" math="0" shadow="0">
            <root>
                <mxCell id="0"/>
                <mxCell id="1" parent="0"/>
                <mxCell id="6" value="#PruebaHerencia" style="html=1;fillColor=#f5f5f5;fontColor=#333333;strokeColor=#666666;" vertex="1" parent="1">
                    <mxGeometry x="240" y="120" width="142" height="50" as="geometry"/>
                </mxCell>
                <mxCell id="15" value="#Punto" style="swimlane;fontStyle=1;align=center;verticalAlign=middle;childLayout=stackLayout;horizontal=1;startSize=29;horizontalStack=0;resizeParent=1;resizeParentMax=0;resizeLast=0;collapsible=0;marginBottom=0;html=1;fontFamily=Helvetica;fontSize=12;fontColor=#333333;fillColor=#f5f5f5;strokeColor=#666666;" vertex="1" parent="1">
                    <mxGeometry x="50" y="272" width="142" height="79" as="geometry"/>
                </mxCell>
                <mxCell id="16" value="Coordenada X" style="text;html=1;strokeColor=none;fillColor=#FFFFFF;align=center;verticalAlign=middle;spacingLeft=4;spacingRight=4;overflow=hidden;rotatable=0;points=[[0,0.5],[1,0.5]];portConstraint=eastwest;fontFamily=Helvetica;fontSize=12;fontColor=#333333;strokeWidth=0;fillStyle=auto;" vertex="1" parent="15">
                    <mxGeometry y="29" width="142" height="25" as="geometry"/>
                </mxCell>
                <mxCell id="24" value="Coordenada Y" style="text;html=1;strokeColor=none;fillColor=#FFFFFF;align=center;verticalAlign=middle;spacingLeft=4;spacingRight=4;overflow=hidden;rotatable=0;points=[[0,0.5],[1,0.5]];portConstraint=eastwest;fontFamily=Helvetica;fontSize=12;fontColor=#333333;strokeWidth=0;fillStyle=auto;" vertex="1" parent="15">
                    <mxGeometry y="54" width="142" height="25" as="geometry"/>
                </mxCell>
                <mxCell id="30" style="edgeStyle=none;shape=link;html=1;exitX=0.5;exitY=0;exitDx=0;exitDy=0;entryX=0.5;entryY=1;entryDx=0;entryDy=0;fontFamily=Helvetica;fontSize=12;fontColor=rgb(240, 240, 240);" edge="1" parent="1" source="25" target="6">
                    <mxGeometry relative="1" as="geometry"/>
                </mxCell>
                <mxCell id="25" value="#Figura" style="swimlane;fontStyle=1;align=center;verticalAlign=middle;childLayout=stackLayout;horizontal=1;startSize=29;horizontalStack=0;resizeParent=1;resizeParentMax=0;resizeLast=0;collapsible=0;marginBottom=0;html=1;fontFamily=Helvetica;fontSize=12;fontColor=#333333;fillColor=#f5f5f5;strokeColor=#6B6B6B;gradientColor=none;fillStyle=solid;strokeWidth=2;" vertex="1" parent="1">
                    <mxGeometry x="240" y="200" width="142" height="154" as="geometry"/>
                </mxCell>
                <mxCell id="26" value="Nombre" style="text;html=1;align=center;verticalAlign=middle;spacingLeft=4;spacingRight=4;overflow=hidden;rotatable=0;points=[[0,0.5],[1,0.5]];portConstraint=eastwest;fontFamily=Helvetica;fontSize=12;strokeWidth=0;fillStyle=auto;fillColor=#FFFFFF;strokeColor=none;fontColor=#333333;" vertex="1" parent="25">
                    <mxGeometry y="29" width="142" height="25" as="geometry"/>
                </mxCell>
                <mxCell id="27" value="Color" style="text;html=1;align=center;verticalAlign=middle;spacingLeft=4;spacingRight=4;overflow=hidden;rotatable=0;points=[[0,0.5],[1,0.5]];portConstraint=eastwest;fontFamily=Helvetica;fontSize=12;fillColor=#FFFFFF;fontColor=#333333;strokeColor=none;strokeWidth=0;fillStyle=auto;" vertex="1" parent="25">
                    <mxGeometry y="54" width="142" height="25" as="geometry"/>
                </mxCell>
                <mxCell id="28" value="Centro" style="text;html=1;align=center;verticalAlign=middle;spacingLeft=4;spacingRight=4;overflow=hidden;rotatable=0;points=[[0,0.5],[1,0.5]];portConstraint=eastwest;fontFamily=Helvetica;fontSize=12;fillColor=#FFFFFF;fontColor=#333333;strokeColor=none;strokeWidth=0;fillStyle=auto;" vertex="1" parent="25">
                    <mxGeometry y="79" width="142" height="25" as="geometry"/>
                </mxCell>
                <mxCell id="45" value="Area" style="text;html=1;align=center;verticalAlign=middle;spacingLeft=4;spacingRight=4;overflow=hidden;rotatable=0;points=[[0,0.5],[1,0.5]];portConstraint=eastwest;fontFamily=Helvetica;fontSize=12;fillColor=#FFFFFF;fontColor=#333333;strokeColor=none;strokeWidth=0;fillStyle=auto;" vertex="1" parent="25">
                    <mxGeometry y="104" width="142" height="25" as="geometry"/>
                </mxCell>
                <mxCell id="44" value="Perimetro" style="text;html=1;align=center;verticalAlign=middle;spacingLeft=4;spacingRight=4;overflow=hidden;rotatable=0;points=[[0,0.5],[1,0.5]];portConstraint=eastwest;fontFamily=Helvetica;fontSize=12;fillColor=#FFFFFF;fontColor=#333333;strokeColor=none;strokeWidth=0;fillStyle=auto;" vertex="1" parent="25">
                    <mxGeometry y="129" width="142" height="25" as="geometry"/>
                </mxCell>
                <mxCell id="49" style="edgeStyle=none;html=1;exitX=1;exitY=0;exitDx=0;exitDy=0;entryX=0.5;entryY=1;entryDx=0;entryDy=0;fontFamily=Helvetica;fontSize=12;fontColor=#050505;endArrow=classic;endFill=1;" edge="1" parent="1" source="31" target="25">
                    <mxGeometry relative="1" as="geometry"/>
                </mxCell>
                <mxCell id="31" value="#Rectangulo" style="swimlane;fontStyle=1;align=center;verticalAlign=middle;childLayout=stackLayout;horizontal=1;startSize=29;horizontalStack=0;resizeParent=1;resizeParentMax=0;resizeLast=0;collapsible=0;marginBottom=0;html=1;fontFamily=Helvetica;fontSize=12;fontColor=#333333;fillColor=#f5f5f5;strokeColor=#6B6B6B;gradientColor=none;fillStyle=solid;strokeWidth=2;" vertex="1" parent="1">
                    <mxGeometry x="130" y="430" width="142" height="79" as="geometry"/>
                </mxCell>
                <mxCell id="32" value="LadoMayor" style="text;html=1;strokeColor=none;fillColor=#FFFFFF;align=center;verticalAlign=middle;spacingLeft=4;spacingRight=4;overflow=hidden;rotatable=0;points=[[0,0.5],[1,0.5]];portConstraint=eastwest;fontFamily=Helvetica;fontSize=12;fontColor=#333333;strokeWidth=0;fillStyle=auto;" vertex="1" parent="31">
                    <mxGeometry y="29" width="142" height="25" as="geometry"/>
                </mxCell>
                <mxCell id="33" value="LadoMenor" style="text;html=1;strokeColor=none;fillColor=#FFFFFF;align=center;verticalAlign=middle;spacingLeft=4;spacingRight=4;overflow=hidden;rotatable=0;points=[[0,0.5],[1,0.5]];portConstraint=eastwest;fontFamily=Helvetica;fontSize=12;fontColor=#333333;strokeWidth=0;fillStyle=auto;" vertex="1" parent="31">
                    <mxGeometry y="54" width="142" height="25" as="geometry"/>
                </mxCell>
                <mxCell id="36" style="edgeStyle=none;html=1;exitX=0;exitY=0.5;exitDx=0;exitDy=0;fontFamily=Helvetica;fontSize=12;fontColor=rgb(240, 240, 240);endArrow=none;endFill=0;entryX=1;entryY=0.25;entryDx=0;entryDy=0;" edge="1" parent="1" source="28" target="15">
                    <mxGeometry relative="1" as="geometry">
                        <mxPoint x="190" y="210" as="targetPoint"/>
                    </mxGeometry>
                </mxCell>
                <mxCell id="50" style="edgeStyle=none;html=1;exitX=0;exitY=0;exitDx=0;exitDy=0;entryX=0.5;entryY=1;entryDx=0;entryDy=0;fontFamily=Helvetica;fontSize=12;fontColor=#050505;endArrow=classic;endFill=1;" edge="1" parent="1" source="37" target="25">
                    <mxGeometry relative="1" as="geometry"/>
                </mxCell>
                <mxCell id="37" value="#Elipse" style="swimlane;fontStyle=1;align=center;verticalAlign=middle;childLayout=stackLayout;horizontal=1;startSize=29;horizontalStack=0;resizeParent=1;resizeParentMax=0;resizeLast=0;collapsible=0;marginBottom=0;html=1;fontFamily=Helvetica;fontSize=12;fontColor=#333333;fillColor=#f5f5f5;strokeColor=#666666;" vertex="1" parent="1">
                    <mxGeometry x="350" y="430" width="142" height="79" as="geometry"/>
                </mxCell>
                <mxCell id="38" value="RadioMayor" style="text;html=1;strokeColor=none;fillColor=#FFFFFF;align=center;verticalAlign=middle;spacingLeft=4;spacingRight=4;overflow=hidden;rotatable=0;points=[[0,0.5],[1,0.5]];portConstraint=eastwest;fontFamily=Helvetica;fontSize=12;fontColor=#333333;strokeWidth=0;fillStyle=auto;" vertex="1" parent="37">
                    <mxGeometry y="29" width="142" height="25" as="geometry"/>
                </mxCell>
                <mxCell id="39" value="RadioMenor" style="text;html=1;strokeColor=none;fillColor=#FFFFFF;align=center;verticalAlign=middle;spacingLeft=4;spacingRight=4;overflow=hidden;rotatable=0;points=[[0,0.5],[1,0.5]];portConstraint=eastwest;fontFamily=Helvetica;fontSize=12;fontColor=#333333;strokeWidth=0;fillStyle=auto;" vertex="1" parent="37">
                    <mxGeometry y="54" width="142" height="25" as="geometry"/>
                </mxCell>
                <mxCell id="54" style="edgeStyle=none;html=1;exitX=0.5;exitY=0;exitDx=0;exitDy=0;entryX=0.5;entryY=1;entryDx=0;entryDy=0;fontFamily=Helvetica;fontSize=12;fontColor=#050505;endArrow=classic;endFill=1;" edge="1" parent="1" source="51" target="37">
                    <mxGeometry relative="1" as="geometry"/>
                </mxCell>
                <mxCell id="51" value="#Circulo" style="swimlane;fontStyle=1;align=center;verticalAlign=middle;childLayout=stackLayout;horizontal=1;startSize=29;horizontalStack=0;resizeParent=1;resizeParentMax=0;resizeLast=0;collapsible=0;marginBottom=0;html=1;fontFamily=Helvetica;fontSize=12;fontColor=#333333;fillColor=#f5f5f5;strokeColor=#666666;" vertex="1" parent="1">
                    <mxGeometry x="350" y="550" width="142" height="54" as="geometry"/>
                </mxCell>
                <mxCell id="52" value="Radio" style="text;html=1;strokeColor=none;fillColor=#FFFFFF;align=center;verticalAlign=middle;spacingLeft=4;spacingRight=4;overflow=hidden;rotatable=0;points=[[0,0.5],[1,0.5]];portConstraint=eastwest;fontFamily=Helvetica;fontSize=12;fontColor=#333333;strokeWidth=0;fillStyle=auto;" vertex="1" parent="51">
                    <mxGeometry y="29" width="142" height="25" as="geometry"/>
                </mxCell>
                <mxCell id="58" style="edgeStyle=none;html=1;exitX=0.5;exitY=0;exitDx=0;exitDy=0;entryX=0.5;entryY=1;entryDx=0;entryDy=0;fontFamily=Helvetica;fontSize=12;fontColor=#050505;endArrow=classic;endFill=1;" edge="1" parent="1" source="55" target="31">
                    <mxGeometry relative="1" as="geometry"/>
                </mxCell>
                <mxCell id="55" value="#Cuadrado" style="swimlane;fontStyle=1;align=center;verticalAlign=middle;childLayout=stackLayout;horizontal=1;startSize=29;horizontalStack=0;resizeParent=1;resizeParentMax=0;resizeLast=0;collapsible=0;marginBottom=0;html=1;fontFamily=Helvetica;fontSize=12;fontColor=#333333;fillColor=#f5f5f5;strokeColor=#666666;" vertex="1" parent="1">
                    <mxGeometry x="130" y="550" width="142" height="54" as="geometry"/>
                </mxCell>
                <mxCell id="56" value="Lado" style="text;html=1;strokeColor=none;fillColor=#FFFFFF;align=center;verticalAlign=middle;spacingLeft=4;spacingRight=4;overflow=hidden;rotatable=0;points=[[0,0.5],[1,0.5]];portConstraint=eastwest;fontFamily=Helvetica;fontSize=12;fontColor=#333333;strokeWidth=0;fillStyle=auto;" vertex="1" parent="55">
                    <mxGeometry y="29" width="142" height="25" as="geometry"/>
                </mxCell>
            </root>
        </mxGraphModel>
    </diagram>
</mxfile>